<?xml version="1.0" encoding="utf-8"?>
<!-- Generator: Adobe Illustrator 26.3.1, SVG Export Plug-In . SVG Version: 6.00 Build 0)  -->
<svg version="1.1" id="katman_1" xmlns="http://www.w3.org/2000/svg" xmlns:xlink="http://www.w3.org/1999/xlink" x="0px" y="0px"
	 viewBox="0 0 4.29 14.94" style="enable-background:new 0 0 4.29 14.94;" xml:space="preserve">
<style type="text/css">
	.st0{fill:#F5F5F5;stroke:#919191;stroke-width:0.5;stroke-miterlimit:10;}
	.st1{fill:#F2ECBE;stroke:#919191;stroke-width:0.5;stroke-miterlimit:10;}
	.st2{fill:#F5F5F5;}
	.st3{fill:#919191;}
	.st4{fill:#F2ECBE;}
	.st5{fill:#626262;}
	.st6{fill:none;stroke:#919191;stroke-width:0.5;stroke-miterlimit:10;}
</style>
<g>
	<path class="st4" d="M3.8,9.67c0,0-1.75-0.56-3.04,0l0.51-6.89l0.1-1.47c0,0,0.04-1.68,0.76-1.2c0.09,0.06,0.2,0.11,0.31,0.14
		C2.68,0.3,3.14,0.57,3.1,1.81L3.8,9.67z"/>
	<path class="st3" d="M0.73,9.71l0.51-6.93l0.1-1.47c0-0.04,0.03-1.08,0.41-1.28C1.87-0.03,2-0.01,2.14,0.09
		c0.1,0.07,0.2,0.11,0.3,0.13c0.27,0.06,0.72,0.35,0.69,1.59l0.7,7.9L3.79,9.7c-0.02-0.01-1.75-0.55-3.02,0L0.73,9.71z M2.12,9.4
		c0.78,0,1.48,0.19,1.65,0.23l-0.7-7.82c0.04-1.2-0.39-1.48-0.64-1.53C2.32,0.25,2.22,0.21,2.11,0.14c-0.13-0.08-0.24-0.1-0.33-0.05
		C1.43,0.27,1.4,1.31,1.4,1.32L1.3,2.79l-0.5,6.84C1.22,9.45,1.68,9.4,2.12,9.4z"/>
</g>
<g>
	<path class="st2" d="M3.8,9.67c0,0,0.19,2.85,0.44,3.94c0.06,0.25,0.03,0.52-0.1,0.74C3.94,14.68,3.5,15,2.51,14.88
		c0,0-1.47-0.11-2.27-1.2c-0.16-0.22-0.23-0.48-0.21-0.74c0.05-0.62,0.21-1.96,0.73-3.27C0.76,9.67,1.92,9.13,3.8,9.67z"/>
	<path class="st3" d="M2.9,14.94c-0.12,0-0.25-0.01-0.4-0.02c-0.01,0-1.49-0.12-2.29-1.21C0.06,13.48-0.02,13.21,0,12.94
		c0.05-0.67,0.21-1.98,0.73-3.28l0-0.01l0.01,0c0.01-0.01,1.19-0.54,3.06,0l0.02,0.01l0,0.02c0,0.03,0.19,2.86,0.44,3.94
		c0.06,0.27,0.02,0.54-0.11,0.76C4,14.64,3.65,14.94,2.9,14.94z M0.79,9.69c-0.51,1.29-0.67,2.59-0.73,3.25
		c-0.02,0.26,0.05,0.52,0.21,0.73c0.78,1.07,2.23,1.19,2.25,1.19c1,0.12,1.42-0.22,1.6-0.52c0.12-0.21,0.16-0.46,0.1-0.72
		c-0.24-1.04-0.42-3.67-0.44-3.93C2.03,9.2,0.9,9.64,0.79,9.69z"/>
</g>
</svg>
