<?xml version="1.0" encoding="UTF-8"?><svg id="katman_1" xmlns="http://www.w3.org/2000/svg" viewBox="0 0 4.71 15.15"><defs><style>.cls-1{fill:#f5f5f5;}.cls-2{fill:#f2ecbe;}.cls-3{fill:#919191;}</style></defs><g><path class="cls-2" d="M4.07,10.3s.14-.78-2.94-.37c0,0,1.16-4.87,.63-7.43,0,0-.14-.75-.24-1.18-.04-.17-.04-.36,0-.53s.16-.37,.39-.48c.08-.03,.14-.08,.2-.14,.19-.18,.68-.47,1.06,.83,0,0,1.39,4.68,.89,9.29Z"/><path class="cls-3" d="M4.1,10.31h-.06s0-.1-.08-.18c-.18-.18-.78-.44-2.83-.17h-.04v-.03s1.17-4.89,.64-7.41c0,0-.14-.75-.24-1.18-.04-.19-.04-.38,0-.54,.07-.23,.21-.4,.41-.5,.08-.04,.14-.08,.2-.13,.1-.1,.27-.21,.46-.16,.25,.07,.47,.4,.64,.99,.01,.05,1.39,4.74,.89,9.3h0Zm-1.43-.52c.83,0,1.19,.15,1.34,.31,.02,.02,.04,.04,.05,.06,.46-4.5-.89-9.09-.9-9.13-.17-.57-.37-.89-.6-.95-.17-.04-.31,.05-.41,.14-.06,.06-.13,.1-.21,.14-.19,.09-.31,.24-.38,.46-.05,.16-.05,.34,0,.51,.1,.43,.24,1.17,.24,1.18,.5,2.41-.51,6.92-.62,7.4,.62-.08,1.11-.11,1.49-.11Z"/></g><g><path class="cls-1" d="M4.07,10.3s-.17,.96,.3,1.69c0,0,.8,1.67-.19,2.23-.09,.05-.18,.11-.26,.18-.35,.32-1.42,1.15-2.27,.45-.09-.08-.19-.15-.29-.21-.47-.28-1.77-1.22-1.19-2.78l.96-1.92s2.84-.45,2.94,.37Z"/><path class="cls-3" d="M2.4,15.15c-.26,0-.52-.08-.76-.28-.11-.09-.2-.16-.29-.21-.43-.26-1.8-1.22-1.2-2.81l.97-1.94h.01c.09-.02,2.19-.34,2.8,.12,.1,.07,.15,.17,.17,.27h0s-.16,.97,.3,1.68c0,.02,.8,1.71-.2,2.27-.11,.06-.19,.12-.25,.18-.23,.21-.87,.72-1.54,.72Zm-1.24-5.19l-.96,1.91c-.58,1.55,.75,2.49,1.18,2.74,.09,.05,.19,.12,.3,.21,.82,.67,1.83-.09,2.23-.45,.07-.06,.16-.12,.26-.18,.96-.54,.19-2.18,.18-2.19-.45-.7-.32-1.63-.31-1.7-.01-.09-.06-.17-.14-.23-.57-.43-2.55-.14-2.74-.12Z"/></g></svg>