<?xml version="1.0" encoding="UTF-8"?><svg id="katman_1" xmlns="http://www.w3.org/2000/svg" viewBox="0 0 4.52 13.9"><defs><style>.cls-1{fill:#f5f5f5;}.cls-2{fill:#f2ecbe;}.cls-3{fill:#919191;}</style></defs><g><path class="cls-2" d="M3.62,9.16s-1.16-.91-2.82-.08c0,0,.29-5.29,1.41-8.25,0,0,.49-1.8,1.1,0,0,0,.75,4.22,.31,8.34Z"/><path class="cls-3" d="M3.64,9.22l-.04-.03s-1.17-.89-2.79-.08l-.04,.02v-.05c0-.05,.3-5.33,1.41-8.26C2.19,.79,2.4,.01,2.74,0h0c.2,0,.4,.27,.58,.82,0,.05,.75,4.27,.31,8.35v.05Zm-1.47-.51c.75,0,1.27,.31,1.42,.41,.42-4.05-.31-8.24-.32-8.28C3.06,.19,2.87,.06,2.75,.06h0c-.25,0-.45,.56-.51,.78C1.18,3.61,.86,8.49,.83,9.03c.5-.24,.96-.33,1.35-.33Z"/></g><g><path class="cls-1" d="M3.62,9.16s.61,.76,.8,2.22c0,0,.23,1.07-.11,1.61-.05,.07-.11,.13-.18,.18-.22,.15-.79,.5-1.49,.66-.3,.07-.62,.04-.9-.08-.44-.19-1.1-.58-1.55-1.35-.04-.08-.08-.16-.1-.25-.07-.3-.14-.97,.33-2.05,.02-.05,.04-.09,.07-.14,.08-.14,.29-.51,.32-.89,0,0,1.39-.85,2.82,.08Z"/><path class="cls-3" d="M2.3,13.9c-.2,0-.39-.04-.58-.12-.47-.2-1.12-.6-1.56-1.36-.05-.08-.08-.16-.1-.25-.08-.31-.13-.99,.33-2.06,.02-.05,.05-.1,.07-.14,.09-.14,.29-.51,.31-.88h0v-.02s1.43-.85,2.86,.08h0s.62,.79,.81,2.24c0,.04,.23,1.09-.12,1.63-.04,.07-.11,.13-.19,.19-.22,.15-.8,.5-1.5,.67-.11,.03-.23,.04-.34,.04ZM.82,9.1c-.03,.38-.23,.75-.32,.89-.03,.04-.05,.09-.07,.13C-.02,11.18,.03,11.85,.11,12.15c.02,.08,.05,.16,.1,.24,.43,.75,1.07,1.14,1.53,1.34,.28,.12,.59,.15,.88,.08,.69-.16,1.27-.51,1.48-.66,.08-.05,.14-.11,.18-.17,.33-.52,.11-1.58,.11-1.59-.18-1.38-.75-2.15-.79-2.2-1.32-.86-2.63-.17-2.77-.09Z"/></g></svg>