<?xml version="1.0" encoding="UTF-8"?><svg id="katman_1" xmlns="http://www.w3.org/2000/svg" viewBox="0 0 5.02 14.83"><defs><style>.cls-1{fill:#f5f5f5;}.cls-2{fill:#f2ecbe;}.cls-3{fill:#919191;}</style></defs><g><path class="cls-2" d="M4.16,10.02s-1.54-.73-3.09-.15c0,0-.12-4.71,.21-6.25,0,0,.25-2.11,.45-2.8,.03-.1,.08-.19,.14-.27,.23-.29,.86-.96,1.3-.08,.05,.11,.08,.23,.08,.35-.01,.67-.05,3.35,.08,5.31,0,0,.62,3.8,.83,3.9Z"/><path class="cls-3" d="M4.15,10.05s-1.54-.71-3.07-.15h-.04v-.03s-.12-4.73,.21-6.26c0-.02,.25-2.11,.45-2.8,.03-.1,.08-.2,.15-.28C2.02,.32,2.35-.03,2.69,0c.2,.02,.37,.17,.51,.45,.06,.11,.08,.24,.08,.36-.01,.76-.05,3.37,.08,5.31,.24,1.46,.67,3.8,.81,3.87l-.02,.05Zm-1.8-.43c.83,0,1.51,.24,1.74,.34-.24-.53-.69-3.25-.78-3.83-.13-1.94-.09-4.56-.08-5.32,0-.11-.02-.23-.08-.34-.13-.26-.29-.4-.47-.42-.32-.03-.66,.34-.79,.5-.06,.08-.11,.17-.14,.26-.2,.69-.45,2.78-.45,2.8-.31,1.45-.22,5.75-.21,6.21,.43-.15,.85-.21,1.25-.21Z"/></g><g><path class="cls-1" d="M4.16,10.02s1.25,2.09,.68,2.78c0,0-.57,1.08-1.82,1.7-.06,.03-.12,.06-.18,.09-.24,.15-1.23,.64-2.12-.71-.05-.07-.1-.14-.16-.21-.23-.29-.84-1.16-.37-2.04,.03-.06,.06-.12,.09-.18,.12-.3,.51-1.24,.79-1.58,0,0,1.26-.6,3.09,.15Z"/><path class="cls-3" d="M2.12,14.83c-.41,0-.94-.19-1.42-.93-.04-.07-.09-.14-.15-.21-.21-.26-.85-1.17-.38-2.07,.03-.06,.06-.12,.09-.18,.11-.29,.51-1.24,.8-1.59h0s1.29-.6,3.11,.14h.01c.05,.1,1.25,2.13,.67,2.83,0,0-.59,1.09-1.83,1.7h0c-.06,.03-.11,.06-.17,.09-.09,.06-.37,.21-.74,.21Zm-1.03-4.94c-.28,.34-.67,1.28-.78,1.57-.03,.06-.06,.13-.09,.19-.45,.85,.11,1.69,.37,2.01,.06,.07,.11,.14,.16,.21,.86,1.31,1.81,.87,2.08,.71,.06-.03,.11-.06,.17-.09h0c1.23-.61,1.8-1.68,1.81-1.69,.54-.65-.59-2.61-.67-2.75-1.73-.71-2.96-.19-3.05-.15Z"/></g></svg>