<?xml version="1.0" encoding="UTF-8"?><svg id="katman_1" xmlns="http://www.w3.org/2000/svg" viewBox="0 0 6.11 12.38"><defs><style>.cls-1{fill:#f5f5f5;}.cls-2{fill:#f2ecbe;}.cls-3{fill:#919191;}</style></defs><g><path class="cls-2" d="M5.35,7.59s-2.18-.84-4.48,0c0,0-.28-4.08,.68-6.71,0,0,.68-1.86,.94-.08,0,.05,.01,.1,.01,.16,0,.22,0,.84-.01,1.01,0,0,.25-1.22,1.03-1.64,.08-.04,.18-.05,.26,0,.12,.06,.25,.25,.21,.73v1.16s.25-1.47,.89-1.71c0,0,.33-.07,.28,1.27,0,.12,0,.23,0,.35,.05,.91,.25,4.76,.18,5.45Z"/><path class="cls-3" d="M5.38,7.63h-.03s-2.19-.83-4.46-.01h-.04v-.02S.58,3.48,1.53,.87C1.56,.78,1.86-.03,2.16,0c.17,.02,.28,.28,.36,.79,0,.05,.01,.1,.01,.16,0,.14,0,.5,0,.76,.12-.38,.41-1.11,.99-1.42,.09-.05,.2-.05,.29,0,.13,.07,.27,.25,.22,.76v.89c.11-.44,.37-1.28,.85-1.46,0,0,.06-.01,.11,.04,.11,.09,.24,.39,.21,1.27,0,.11,0,.23,0,.35,.04,.79,.25,4.76,.18,5.46v.04Zm-2.33-.44c1.18,0,2.09,.29,2.28,.36,.06-.79-.14-4.64-.18-5.41,0-.12,0-.24,0-.35,.03-.89-.1-1.14-.19-1.22-.04-.03-.06-.03-.06-.03-.61,.23-.86,1.67-.86,1.69h-.06V1.06c.04-.48-.08-.65-.19-.71-.07-.04-.16-.03-.24,0-.76,.4-1.02,1.61-1.02,1.62h-.06c.01-.17,.01-.82,.01-1.02,0-.05,0-.1-.01-.15-.09-.6-.22-.74-.31-.75-.22-.02-.49,.59-.57,.83C.68,3.35,.87,7.13,.9,7.55c.75-.27,1.5-.36,2.15-.36Z"/></g><path class="cls-3" d="M2.99,5.25l-.03-.03c-.89-.89-.51-3.16-.5-3.26h.06s-.38,2.3,.45,3.19c.13-.28,.94-2.09,1-2.93h.06c-.06,.93-1.01,2.97-1.02,2.99l-.02,.04Z"/><path class="cls-3" d="M3.11,7.22c-.06-.33-.16-1.95-.16-2.02h.06s.1,1.68,.16,2.01h-.06Z"/><g><path class="cls-1" d="M5.35,7.59s1.28,2.57,.45,3.57c-.08,.09-.15,.19-.21,.29-.22,.36-.8,1.15-1.42,.66,0,0-.78-.59-1.43-.03-.2,.17-.44,.28-.7,.28-.35,0-.84-.14-1.31-.67-.06-.06-.12-.13-.18-.19-.29-.27-1.15-1.35,.34-3.91,0,0,2.01-.83,4.48,0Z"/><path class="cls-3" d="M2.04,12.38h-.02c-.34,0-.84-.13-1.33-.68-.06-.06-.12-.13-.18-.18-.3-.28-1.16-1.38,.33-3.94h.01s2.05-.84,4.5-.01h.02c.05,.12,1.28,2.61,.45,3.61-.08,.09-.15,.19-.21,.29-.17,.27-.51,.74-.93,.82-.19,.03-.37-.02-.54-.15,0,0-.77-.57-1.39-.03-.21,.18-.46,.28-.71,.28ZM.89,7.61c-1.46,2.52-.63,3.59-.34,3.86,.06,.06,.13,.12,.18,.19,.48,.54,.96,.66,1.29,.66,.24,0,.48-.09,.69-.27,.66-.57,1.46,.02,1.47,.03,.16,.12,.32,.17,.5,.14,.39-.07,.72-.53,.89-.79,.06-.1,.14-.2,.22-.29,.78-.94-.36-3.34-.45-3.52-2.34-.78-4.29-.06-4.44,0Z"/></g></svg>