<?xml version="1.0" encoding="UTF-8"?><svg id="katman_1" xmlns="http://www.w3.org/2000/svg" viewBox="0 0 6.77 13.57"><defs><style>.cls-1{fill:#f5f5f5;}.cls-2{fill:#f2ecbe;}.cls-3{fill:#919191;}</style></defs><g><path class="cls-2" d="M.41,8.91s.76-.77,3.85-.6c0,0,1.33-.05,2.02,.43,0,0-.22-3.53-.06-4.24,.04-.18,.07-.37,.08-.56,.01-.61-.02-1.73-.31-2.6,0,0-.34-1.58-.88-.1-.02,.06-.05,.12-.07,.18-.08,.16-.25,.54-.34,.99,0,0,.23-.42-.41-1.79,0,0-.38-1.23-1.37-.12-.05,.06-.13,.1-.21,.1-.16,0-.5,.11-.99,.82-.03,.05-.07,.09-.11,.13-.15,.15-.57,.65-.78,1.72-.03,.15-.04,.31-.04,.46,.03,.8,.11,3.69-.38,5.18Z"/><path class="cls-3" d="M.34,9.02l.04-.11c.48-1.48,.41-4.33,.38-5.17,0-.16,0-.32,.04-.47,.22-1.07,.63-1.57,.79-1.74,.04-.04,.08-.08,.11-.13,.49-.73,.84-.84,1.01-.84h0c.07,0,.14-.03,.19-.09C3.22,.11,3.51-.04,3.77,.01c.38,.08,.53,.57,.54,.59,.33,.71,.43,1.17,.44,1.44,.09-.29,.2-.53,.25-.64,.02-.05,.05-.11,.07-.17,.16-.45,.33-.66,.49-.65,.28,.02,.44,.72,.44,.75,.3,.88,.33,2.01,.31,2.61,0,.16-.03,.34-.08,.56-.16,.7,.06,4.2,.06,4.23v.06l-.04-.03c-.67-.46-1.99-.42-2-.42-3.03-.17-3.82,.58-3.83,.59l-.08,.08ZM2.7,.62c-.16,0-.49,.11-.96,.81-.03,.05-.07,.09-.11,.14-.16,.16-.56,.65-.78,1.71-.03,.15-.04,.3-.04,.46,.03,.82,.11,3.59-.35,5.1,.25-.18,1.21-.69,3.79-.54,.05,0,1.29-.04,1.98,.4-.03-.47-.2-3.53-.05-4.19,.05-.22,.07-.39,.08-.55,.01-.59-.01-1.72-.31-2.59-.04-.2-.19-.7-.39-.71-.09,0-.24,.1-.43,.61-.02,.07-.05,.12-.07,.18-.06,.13-.21,.45-.3,.83-.01,.1-.03,.15-.04,.15l-.1,.18,.04-.2s.02-.09,.03-.13c.02-.21,0-.7-.43-1.64,0,0-.15-.48-.5-.56-.24-.05-.51,.1-.82,.44-.06,.07-.14,.11-.23,.11h0Z"/></g><g><path class="cls-2" d="M4.69,2.41s-.22,1.94-.32,2.67c0,0-.09,.66-.8,1.55-.08,.1-.1,.23-.06,.36,.03,.09,.06,.2,.08,.31s0,.21-.06,.31c-.1,.19-.27,.55-.18,.69"/><path class="cls-3" d="M3.33,8.3c-.09-.15,.05-.48,.18-.72,.05-.09,.07-.19,.05-.29-.01-.09-.04-.19-.08-.3-.05-.13-.02-.27,.07-.38,.69-.87,.79-1.53,.79-1.54,.1-.73,.31-2.65,.32-2.67h.06s-.22,1.95-.32,2.68c0,.03-.1,.68-.8,1.57-.07,.09-.1,.22-.06,.33,.04,.11,.07,.22,.08,.31,.02,.11,0,.22-.06,.32-.17,.32-.24,.57-.18,.67l-.05,.03Z"/></g><g><path class="cls-2" d="M2.71,.59s-.06,2.5,.1,4.18c0,0,.12,1.49,.71,2.21"/><path class="cls-3" d="M3.49,7c-.59-.72-.72-2.21-.72-2.23-.15-1.67-.1-4.16-.1-4.19h.06s-.06,2.52,.1,4.18c0,.02,.12,1.49,.7,2.2l-.04,.04Z"/></g><g><path class="cls-1" d="M6.27,8.74s1.03,2.94,.02,3.95c0,0-.89,1.37-1.88,.52,0,0-.68-.88-1.45,0,0,0-2.09,1-2.55-.49,0,0-.86-1.49,0-3.81,0,0,.92-.8,3.85-.6,0,0,1.24-.05,2.02,.43Z"/><path class="cls-3" d="M1.6,13.57c-.21,0-.42-.03-.61-.12-.3-.13-.5-.37-.61-.72,0,0-.85-1.52,0-3.83h0s.96-.82,3.87-.61c0,0,1.25-.05,2.03,.43h.01c.04,.14,1.02,2.98,.01,3.99-.02,.02-.46,.7-1.09,.8-.29,.04-.57-.05-.83-.27,0,0-.29-.37-.69-.38-.25,0-.49,.12-.72,.38h0s-.7,.34-1.37,.34ZM.43,8.93c-.84,2.29,0,3.77,0,3.78,.1,.34,.3,.57,.58,.69,.73,.32,1.84-.17,1.93-.21,.24-.27,.5-.4,.76-.39,.43,.01,.72,.38,.73,.4,.25,.21,.51,.29,.78,.25,.6-.09,1.05-.77,1.06-.78,.96-.96,.04-3.73-.02-3.91-.76-.47-1.98-.42-1.99-.42-2.77-.2-3.75,.52-3.82,.58Z"/></g></svg>