<?xml version="1.0" encoding="UTF-8"?><svg id="katman_1" xmlns="http://www.w3.org/2000/svg" viewBox="0 0 5.9 11.9"><defs><style>.cls-1{fill:#f5f5f5;}.cls-2{fill:#f2ecbe;}.cls-3{fill:#919191;}</style></defs><g><path class="cls-2" d="M5.06,7.17s-1.77-.95-4.08,0c0,0-.19-4.52,.22-6.16,0,0,.33-1.57,.69-.74,.07,.15,.1,.31,.11,.48,.05,.78,.31,3.74,1.17,4.28,0,0,.31-.66,.53-1.47,.09-.31,.12-.64,.11-.96-.01-.42-.03-1.06-.01-1.4,0-.09,.02-.18,.05-.26,.08-.25,.3-.7,.67-.31,.08,.08,.13,.18,.15,.28,.08,.36,.29,1.46,.39,3.84v2.41Z"/><path class="cls-3" d="M5.09,7.22l-.04-.02s-1.79-.93-4.06,0l-.04,.02v-.04s-.18-4.55,.22-6.17C1.19,.91,1.38,.03,1.65,0c.09-.01,.18,.07,.26,.26,.06,.14,.1,.31,.11,.49,.04,.61,.29,3.65,1.13,4.24,.06-.14,.32-.73,.51-1.43,.09-.31,.12-.63,.11-.95-.02-.46-.03-1.07-.01-1.4,0-.09,.02-.18,.05-.27,.07-.19,.18-.43,.37-.47,.11-.02,.23,.03,.35,.15,.08,.08,.13,.18,.16,.3,.09,.36,.29,1.47,.39,3.85v2.46ZM1.66,.06h0c-.2,.02-.38,.7-.43,.96-.38,1.53-.24,5.66-.22,6.11,2.09-.84,3.75-.14,4.03,0v-2.37c-.09-2.37-.3-3.47-.39-3.84-.02-.1-.07-.2-.15-.27-.11-.11-.21-.16-.3-.14-.17,.04-.28,.29-.33,.44-.03,.08-.04,.17-.05,.26-.02,.33,0,.94,.01,1.4,.01,.33-.03,.65-.11,.97-.22,.8-.53,1.46-.53,1.47v.03l-.04-.02c-.87-.54-1.12-3.43-1.18-4.31-.01-.17-.05-.33-.11-.47-.07-.15-.13-.22-.2-.22Z"/></g><path class="cls-3" d="M2.1,6.86l-.04-.04s.71-.86,1.08-1.81l.05,.02c-.37,.96-1.08,1.81-1.09,1.82Z"/><g><path class="cls-2" d="M2.1,1.82s.36-1.32,1.03-.57c0,0,.58,.85,.68,1.36,0,0,.03,.38-.11,.96,0,0-.34,1.14-.53,1.47,0,0-.39-.14-.73-1.36,0,0-.26-1.06-.34-1.85Z"/><path class="cls-3" d="M3.18,5.07h-.02s-.41-.17-.75-1.39c0-.01-.26-1.07-.34-1.86h0s.2-.73,.58-.82c.16-.04,.33,.04,.5,.23,.03,.04,.59,.86,.69,1.38,0,.02,.03,.39-.11,.97-.01,.05-.34,1.15-.53,1.47v.02ZM2.13,1.82c.08,.78,.34,1.83,.34,1.84,.28,1.02,.6,1.28,.69,1.33,.19-.35,.51-1.43,.51-1.44,.14-.57,.11-.95,.11-.95-.1-.5-.67-1.34-.68-1.35-.15-.17-.3-.24-.44-.21-.33,.08-.52,.71-.54,.77Z"/></g><g><path class="cls-1" d="M5.06,7.17s.46,.68,.79,2.09c0,0,.13,1.1-.24,1.3,0,0-.56,.68-1.34,1.19,0,0-.3,.27-.95,0,0,0-.51-.61-1.15-.28,0,0-.51,.57-1.16-.05,0,0-.91-.47-.97-1.66,0,0,.24-1.6,.95-2.6,0,0,1.92-.96,4.08,0Z"/><path class="cls-3" d="M3.85,11.91c-.14,0-.33-.03-.55-.12h-.01s-.5-.59-1.11-.28c-.03,.03-.23,.23-.53,.24-.23,.01-.45-.09-.67-.29-.06-.04-.92-.53-.99-1.68,0-.02,.25-1.63,.95-2.62h.01s1.95-.97,4.11,0h.01s.47,.71,.8,2.11c0,.05,.12,1.12-.25,1.33-.05,.06-.6,.71-1.34,1.19,0,0-.15,.12-.43,.12Zm-.52-.17c.61,.25,.91,0,.91,0,.77-.5,1.33-1.18,1.34-1.19h0c.35-.2,.23-1.27,.23-1.28-.31-1.32-.74-2-.78-2.07-2.07-.91-3.92-.06-4.05,0C.31,8.18,.06,9.76,.06,9.78c.06,1.15,.95,1.62,.96,1.63h0c.21,.2,.42,.3,.63,.29,.3-.01,.49-.23,.49-.23h0c.62-.32,1.13,.21,1.18,.27Z"/></g></svg>