<?xml version="1.0" encoding="UTF-8"?><svg id="katman_1" xmlns="http://www.w3.org/2000/svg" viewBox="0 0 4.36 14.96"><defs><style>.cls-1{fill:#f5f5f5;}.cls-2{fill:#f2ecbe;}.cls-3{fill:#919191;}</style></defs><g><path class="cls-2" d="M3.56,9.73s-.25-.74-3.07-.08C.49,9.65,1.04,1.63,1.16,1.39c0,0,.12-1.15,.72-1.22,.15-.02,.3-.05,.44-.11,.17-.08,.42-.04,.49,.68,.02,.18,.04,.35,.07,.53,.12,.78,.42,3.11,.68,8.46Z"/><path class="cls-3" d="M3.6,9.93l-.07-.19s-.3-.71-3.04-.07h-.04v-.03c.03-.33,.55-7.92,.68-8.26,0-.09,.14-1.17,.74-1.24,.17-.02,.31-.06,.43-.11,.1-.04,.18-.04,.26,0,.14,.08,.23,.32,.27,.7,.02,.18,.04,.35,.07,.53,.12,.75,.42,3.08,.69,8.47v.2Zm-1.16-.59c.71,0,.99,.18,1.1,.29-.26-5.31-.56-7.61-.68-8.36-.03-.18-.05-.35-.07-.53-.04-.36-.12-.59-.24-.66-.06-.03-.13-.03-.21,0-.12,.06-.26,.09-.44,.11-.57,.07-.69,1.19-.69,1.2h0c-.09,.19-.48,5.43-.67,8.21,.85-.2,1.46-.26,1.91-.26Z"/></g><g><path class="cls-1" d="M3.56,9.73s1.5,3.26,.32,4.27c0,0-2.09,1.4-2.99,.76,0,0-1.11-.29-.81-1.69,0,0,.33-2.36,.41-3.43,0,0,2.58-.68,3.07,.08Z"/><path class="cls-3" d="M1.5,14.96c-.23,0-.45-.05-.62-.17-.08-.02-1.12-.36-.83-1.72,0-.02,.33-2.37,.4-3.42v-.02h.02c.11-.03,2.61-.68,3.1,.09h0c.06,.14,1.5,3.29,.31,4.31-.07,.05-1.41,.94-2.4,.94Zm-.99-5.29c-.08,1.07-.4,3.38-.4,3.41-.3,1.36,.78,1.65,.79,1.66h0c.87,.63,2.93-.74,2.95-.76,1.14-.98-.29-4.14-.33-4.23-.45-.7-2.78-.14-3.02-.08Z"/></g></svg>