<?xml version="1.0" encoding="UTF-8"?><svg id="katman_1" xmlns="http://www.w3.org/2000/svg" viewBox="0 0 5.02 15.15"><defs><style>.cls-1{fill:#f5f5f5;}.cls-2{fill:#f2ecbe;}.cls-3{fill:#919191;}</style></defs><g><path class="cls-2" d="M4.35,10.07s-.1-.91-3.49-.27c0,0-.23-5.28,1.37-8.93,0,0,.81-1.9,1.11,0,0,0,.35,4.18,.51,5.29,0,0,.28,1.56,.51,3.91Z"/><path class="cls-3" d="M4.32,10.07s-.02-.1-.16-.21c-.27-.19-1.05-.46-3.3-.03h-.03v-.03c0-.05-.21-5.33,1.37-8.94,.02-.04,.39-.9,.74-.86,.2,.02,.34,.31,.43,.87,0,.04,.36,4.19,.51,5.29,0,.01,.28,1.59,.51,3.91h-.06Zm-1.42-.53c.72,0,1.1,.13,1.3,.28,.05,.04,.08,.07,.11,.1-.22-2.24-.49-3.74-.49-3.76-.15-1.1-.5-5.25-.51-5.29-.1-.65-.26-.8-.38-.82-.26-.03-.58,.58-.68,.83C.74,4.33,.87,9.31,.89,9.77c.87-.16,1.52-.22,2.01-.22Z"/></g><g><path class="cls-1" d="M4.35,10.07s.98,2.77,.52,4.2c0,0-.8,1.22-4.03,.74,0,0-1.22-.15-.68-2.03,0,0,.51-2.72,.69-3.19,0,0,3.11-.68,3.49,.27Z"/><path class="cls-3" d="M2.25,15.15c-.41,0-.88-.03-1.41-.11-.02,0-.4-.05-.64-.43-.25-.37-.27-.92-.06-1.63,.02-.11,.51-2.72,.69-3.19h0v-.02c.14-.03,3.16-.67,3.54,.29h0s.98,2.79,.52,4.22h0s-.6,.87-2.65,.87ZM.88,9.82c-.19,.5-.68,3.14-.68,3.17-.2,.7-.18,1.23,.05,1.59,.23,.35,.6,.4,.6,.4,3.09,.45,3.95-.66,4-.73,.44-1.4-.51-4.13-.52-4.18-.35-.88-3.21-.3-3.45-.26Z"/></g></svg>