<?xml version="1.0" encoding="UTF-8"?><svg id="katman_1" xmlns="http://www.w3.org/2000/svg" viewBox="0 0 4.54 13.91"><defs><style>.cls-1{fill:#f5f5f5;}.cls-2{fill:#f2ecbe;}.cls-3{fill:#919191;}</style></defs><g><path class="cls-2" d="M3.76,9.07S3.19,2.59,2.26,.53c0,0-.51-1.22-.98,.15,0,0-.56,2.62-.37,8.39,0,0,1.6-.73,2.85,0Z"/><path class="cls-3" d="M3.79,9.12l-.05-.03c-1.22-.71-2.81,0-2.83,0l-.04,.02v-.04C.7,3.36,1.25,.7,1.25,.67,1.4,.23,1.58,0,1.77,0c.29-.01,.51,.49,.51,.52,.92,2.04,1.5,8.48,1.5,8.55v.05ZM1.78,.06h0c-.16,0-.32,.22-.47,.63,0,.02-.55,2.66-.37,8.34,.25-.1,1.66-.63,2.79,0-.06-.63-.62-6.54-1.49-8.48,0,0-.2-.48-.45-.48Z"/></g><g><path class="cls-1" d="M3.76,9.07s.56,1.52,.66,2.03c0,0,.33,1.31-.26,1.67-.06,.04-.11,.08-.16,.13-.33,.32-1.44,1.32-2.08,.87-.1-.07-.2-.11-.32-.14-.28-.08-.77-.24-1.18-.53-.19-.13-.32-.35-.35-.58-.05-.42-.09-1.16,.15-1.76,0,0,.49-1.23,.69-1.69,0,0,1.54-.74,2.85,0Z"/><path class="cls-3" d="M2.29,13.91c-.14,0-.28-.04-.4-.12-.09-.06-.19-.11-.31-.14-.27-.07-.77-.24-1.19-.53-.2-.14-.33-.36-.36-.6-.05-.4-.09-1.16,.15-1.78,0-.01,.49-1.24,.69-1.69h.01s1.56-.75,2.88-.01h0v.02s.56,1.53,.66,2.03c.01,.05,.33,1.33-.28,1.7-.06,.04-.12,.09-.16,.13-.27,.26-1.08,.99-1.72,.99ZM.93,9.09c-.2,.46-.68,1.66-.69,1.68-.24,.6-.2,1.35-.15,1.75,.03,.23,.15,.43,.33,.56,.41,.29,.91,.45,1.17,.52,.12,.03,.23,.08,.33,.15,.62,.44,1.72-.56,2.05-.87,.04-.04,.1-.1,.17-.14,.57-.35,.25-1.63,.25-1.64-.1-.48-.61-1.88-.65-2.01-1.23-.69-2.68-.06-2.81,0Z"/></g></svg>