<?xml version="1.0" encoding="UTF-8"?><svg id="katman_1" xmlns="http://www.w3.org/2000/svg" viewBox="0 0 5.05 14.84"><defs><style>.cls-1{fill:#f5f5f5;}.cls-2{fill:#f2ecbe;}.cls-3{fill:#919191;}</style></defs><g><path class="cls-2" d="M3.99,9.86s-1.27-.71-3.08,0c0,0,1.26-3.66,.78-8.26,0-.08-.01-.16,0-.24l.02-.55c0-.09,.02-.17,.05-.26,.09-.27,.36-.74,1.04-.43,.19,.09,.33,.24,.41,.44,.15,.38,.38,1.21,.53,2.79,0,0,.25,3.41,.25,6.51Z"/><path class="cls-3" d="M.87,9.91l.02-.06S2.14,6.15,1.67,1.6c0-.08-.01-.16,0-.24l.02-.55c0-.09,.02-.18,.05-.27,.06-.18,.18-.41,.42-.5,.19-.08,.41-.06,.67,.06,.19,.09,.34,.25,.42,.45,.13,.35,.38,1.18,.53,2.79,0,.03,.25,3.45,.25,6.51v.05l-.04-.02s-1.28-.69-3.05,0l-.06,.02Zm1.64-.39c.77,0,1.3,.22,1.45,.3,0-3.05-.25-6.42-.25-6.46-.15-1.6-.4-2.43-.53-2.78-.07-.19-.21-.34-.39-.42-.24-.11-.45-.13-.62-.06-.21,.09-.33,.31-.39,.47-.03,.08-.04,.16-.05,.25l-.02,.55c0,.08,0,.16,0,.23,.44,4.25-.61,7.73-.77,8.21,.58-.22,1.11-.29,1.55-.29Z"/></g><g><path class="cls-1" d="M3.99,9.86s.8,1.15,1,2.2c0,0,.37,1.09-1.16,2.34,0,0-.95,1.14-2.57-.38,0,0-1.72-1.1-1.09-2.57l.75-1.59s1.6-.72,3.08,0Z"/><path class="cls-3" d="M2.86,14.84c-.51,0-1.06-.27-1.62-.8-.01,0-1.73-1.13-1.1-2.6l.75-1.61h0s1.63-.72,3.1,0h.01s.8,1.18,1,2.22c0,0,.35,1.12-1.17,2.37,0,.01-.32,.38-.9,.41-.03,0-.06,0-.09,0ZM.94,9.88l-.74,1.58c-.62,1.43,1.06,2.52,1.08,2.53,.59,.55,1.15,.81,1.67,.78,.55-.03,.86-.39,.86-.4,1.5-1.23,1.16-2.3,1.16-2.31-.19-1-.93-2.1-.99-2.19-1.39-.67-2.9-.06-3.04,0Z"/></g></svg>