<?xml version="1.0" encoding="UTF-8"?><svg id="katman_1" xmlns="http://www.w3.org/2000/svg" viewBox="0 0 4.64 15.05"><defs><style>.cls-1{fill:#f5f5f5;}.cls-2{fill:#f2ecbe;}.cls-3{fill:#919191;}</style></defs><g><path class="cls-2" d="M3.5,9.87s-1.39-.19-2.51,0c0,0-.35,.09-.46,.38C.54,10.25,.38,3.49,1.64,.53c0,0,.39-1,1.16-.16,.21,.23,.31,.55,.26,.86-.12,.83-.36,2.78-.21,4.62,0,0,.53,3.67,.65,4.03Z"/><path class="cls-3" d="M.52,10.41v-.16c0-.07-.15-6.8,1.1-9.73,0-.02,.18-.44,.52-.51,.22-.04,.45,.07,.69,.34,.22,.24,.32,.56,.27,.89-.11,.77-.36,2.75-.21,4.61,0,.04,.53,3.67,.64,4.02v.04h-.03s-1.4-.19-2.5,0c0,0-.34,.09-.43,.36l-.05,.15ZM2.22,.06s-.05,0-.07,0c-.31,.06-.48,.47-.48,.47C.51,3.25,.55,9.22,.57,10.13c.14-.22,.41-.28,.42-.29,1-.17,2.23-.04,2.47,0-.13-.53-.61-3.84-.63-3.99-.16-1.87,.1-3.86,.21-4.63,.05-.31-.05-.61-.25-.84-.2-.22-.39-.33-.56-.33Z"/></g><g><path class="cls-1" d="M3.5,9.87s1.51,2.23,1,3.4c0,0-.3,.81-1.65,1.55,0,0-.69,.61-1.79-.29,0,0-1.2-.61-1.01-1.67,0,0,.1-.66,.36-1.24,.11-.25,.17-.52,.17-.8,0-.16,0-.36-.04-.58,0,0,.04-.24,.46-.38,0,0,.94-.19,2.51,0Z"/><path class="cls-3" d="M2.21,15.05c-.3,0-.7-.11-1.17-.49,0,0-1.21-.63-1.02-1.7,0,0,.1-.67,.37-1.25,.11-.24,.16-.5,.17-.78,0-.19-.01-.38-.04-.57h0s.05-.26,.47-.41c.01,0,.97-.19,2.52,0h.02c.06,.1,1.51,2.27,1,3.44-.01,.03-.32,.83-1.67,1.57,0,0-.24,.2-.65,.2ZM.57,10.25c.03,.19,.04,.39,.04,.58,0,.29-.06,.56-.17,.81-.26,.57-.36,1.23-.36,1.23-.18,1.03,.99,1.64,1,1.64,1.07,.87,1.75,.3,1.76,.29,1.33-.73,1.64-1.53,1.65-1.54,.48-1.1-.88-3.19-.99-3.36-1.53-.18-2.47,0-2.48,0-.36,.12-.43,.32-.43,.35Z"/></g></svg>