<?xml version="1.0" encoding="UTF-8"?><svg id="katman_1" xmlns="http://www.w3.org/2000/svg" viewBox="0 0 6.21 12.41"><defs><style>.cls-1{fill:#f5f5f5;}.cls-2{fill:#f2ecbe;}.cls-3{fill:#919191;}</style></defs><g><path class="cls-2" d="M.82,7.55s2.62-.82,4.54,.12c0,0,0-3.72-.34-5.16,0,0-.37-1.69-.58-2.19-.03-.07-.07-.12-.12-.17-.14-.12-.45-.28-.63,.29-.02,.07-.03,.15-.03,.22,.02,.31,.07,1.21,.13,1.88,0,0,.11,1.81-.62,2.59,0,0-.86-2.05-1.38-3.94,0,0-.54-1.44-.73-.27,0,0-.24,4.54-.24,6.62Z"/><path class="cls-3" d="M5.39,7.71l-.04-.02c-1.89-.92-4.5-.12-4.52-.12h-.04v-.03c0-2.05,.24-6.57,.24-6.62,.05-.32,.13-.48,.25-.49,.24-.02,.51,.67,.54,.75,.47,1.72,1.24,3.59,1.36,3.89,.68-.78,.58-2.52,.58-2.54-.06-.66-.11-1.54-.13-1.88,0-.08,0-.16,.03-.24,.08-.24,.18-.38,.32-.41,.14-.04,.27,.04,.36,.11,.06,.05,.1,.11,.13,.18,.2,.49,.56,2.12,.58,2.19,.34,1.43,.34,5.13,.34,5.17v.05Zm-2.24-.52c.72,0,1.49,.1,2.18,.43,0-.43-.02-3.77-.34-5.11,0-.02-.37-1.69-.57-2.18-.03-.06-.06-.12-.11-.16-.08-.06-.19-.14-.31-.1-.11,.03-.21,.16-.28,.38-.02,.07-.03,.14-.03,.21,.02,.35,.07,1.22,.13,1.88,0,.08,.11,1.83-.63,2.62l-.03,.03-.02-.04s-.87-2.07-1.38-3.94c-.11-.28-.33-.72-.48-.71-.05,0-.14,.07-.2,.44,0,.04-.24,4.5-.24,6.57,.2-.06,1.17-.32,2.3-.32Z"/></g><path class="cls-3" d="M3,7.22c-.03-.45,.13-2.02,.14-2.09h.06s-.17,1.64-.14,2.08h-.06Z"/><g><path class="cls-2" d="M2.19,2.49V.84s0-1,.75-.31c0,0,.68,.89,.82,1.65,0,0,.06,.51,.03,1.02,0,0-.03,1.37-.62,1.92,0,0-.82-1.93-.98-2.62Z"/><path class="cls-3" d="M3.16,5.16l-.02-.04s-.82-1.94-.98-2.62h0V.84s0-.46,.23-.56c.14-.06,.33,.02,.56,.23,.01,.01,.69,.9,.83,1.66,0,0,.06,.52,.03,1.03,0,.06-.04,1.39-.62,1.93l-.03,.03Zm-.94-2.67c.15,.62,.85,2.29,.97,2.57,.54-.55,.58-1.85,.58-1.87,.03-.51-.03-1.01-.03-1.02-.14-.74-.81-1.62-.82-1.63-.21-.19-.38-.27-.5-.22-.2,.09-.2,.51-.2,.51v1.65Z"/></g><g><path class="cls-1" d="M5.36,7.63s.69,1.61,.79,2.05c0,0,.14,1.07-.22,1.41,0,0-.76,1-1.37,1.23,0,0-.54,.16-.96-.07,0,0-.69-.74-1.5-.25,0,0-.69,.61-1.2-.17,0,0-.59-.42-.88-1.35,0,0-.04-1.54,.79-2.94,0,0,2.43-.8,4.54,.08Z"/><path class="cls-3" d="M4.15,12.41c-.17,0-.38-.03-.56-.13h0s-.69-.72-1.47-.25c0,0-.32,.27-.68,.22-.21-.03-.4-.16-.56-.4-.06-.04-.61-.48-.88-1.36H0s-.03-1.57,.79-2.96h.02s2.47-.81,4.56,.07h.01v.02c.03,.07,.7,1.62,.8,2.06,0,.05,.13,1.09-.23,1.43-.03,.04-.77,1-1.38,1.24-.01,0-.19,.06-.43,.06Zm-.53-.18c.41,.22,.93,.07,.94,.07,.59-.23,1.34-1.21,1.35-1.22,.34-.33,.22-1.37,.21-1.38-.09-.41-.73-1.9-.79-2.04-2-.84-4.33-.14-4.5-.08C.05,8.91,.06,10.39,.06,10.48c.28,.9,.86,1.33,.87,1.33h0c.15,.23,.32,.36,.52,.38,.34,.05,.64-.21,.64-.21,.8-.48,1.48,.19,1.54,.25Z"/></g></svg>