<?xml version="1.0" encoding="UTF-8"?><svg id="katman_1" xmlns="http://www.w3.org/2000/svg" viewBox="0 0 6.79 13.53"><defs><style>.cls-1{fill:#f5f5f5;}.cls-2{fill:#f2ecbe;}.cls-3{fill:#919191;}</style></defs><g><path class="cls-2" d="M.41,8.7s2.4-1.2,5.87,.12c0,0-.56-2.92-.33-4.67,.03-.26,.03-.51-.02-.77-.14-.69-.55-1.99-1.72-2.75-.04-.03-.1-.03-.14-.01h0c-.07,.03-.15,0-.19-.06-.1-.15-.33-.41-.7-.51-.14-.04-.3,0-.4,.11-.26,.25-.72,.84-.79,1.9C1.98,2.05,1.26-.25,.94,.92c0,0-.34,.59-.46,2.14,0,0-.03,.64,.07,1.42,.01,.11,.02,.23,.02,.34,0,.71,0,3.15-.15,3.87Z"/><path class="cls-3" d="M6.32,8.86l-.05-.02c-3.42-1.3-5.83-.13-5.85-.12l-.05,.03v-.06c.15-.71,.16-3.14,.16-3.87,0-.12,0-.23-.02-.34-.09-.77-.07-1.42-.07-1.43,.12-1.54,.45-2.13,.46-2.16,.06-.23,.15-.34,.26-.34h0c.31,0,.67,.97,.8,1.35,.1-.97,.53-1.53,.79-1.78,.11-.11,.28-.15,.43-.11,.38,.1,.61,.37,.71,.52,.03,.05,.1,.07,.16,.05,.06-.02,.12-.02,.17,.01,1.18,.77,1.59,2.07,1.73,2.77,.05,.24,.06,.5,.02,.77-.22,1.73,.33,4.63,.33,4.66v.05Zm-3.25-.69c.89,0,1.98,.15,3.19,.6-.07-.39-.53-3.02-.33-4.63,.03-.27,.03-.52-.02-.76-.14-.7-.55-1.98-1.71-2.74-.03-.02-.08-.03-.12,0-.08,.03-.18,0-.23-.07-.1-.15-.32-.41-.68-.5-.13-.04-.28,0-.37,.1-.26,.26-.71,.84-.79,1.88v.15l-.06-.14c-.13-.4-.51-1.44-.78-1.44h0c-.08,0-.15,.11-.21,.31,0,.01-.34,.61-.45,2.14,0,0-.03,.65,.07,1.42,.01,.11,.02,.22,.02,.34,0,.71,0,3.05-.14,3.83,.22-.1,1.18-.48,2.61-.48Z"/></g><g><path class="cls-2" d="M1.98,2.05s.24,1.53,.4,2.81c0,0,.07,.81,.78,1.75,.11,.14,.15,.32,.1,.49-.08,.28-.14,.75,.19,1.11"/><path class="cls-3" d="M3.42,8.23c-.35-.38-.27-.88-.19-1.14,.04-.15,0-.33-.1-.47-.7-.93-.78-1.75-.78-1.76-.15-1.26-.39-2.79-.4-2.8h.06s.25,1.53,.4,2.8c0,0,.08,.81,.77,1.73,.12,.15,.15,.35,.1,.52-.09,.31-.13,.75,.18,1.09l-.04,.04Z"/></g><g><path class="cls-2" d="M3.93,.6s.15,.86,.19,1.78c0,0-.03,3.83-.86,4.42"/><path class="cls-3" d="M3.27,6.83l-.03-.05c.81-.57,.84-4.36,.85-4.4-.04-.91-.18-1.77-.19-1.78h.06s.15,.86,.19,1.78c0,.16-.04,3.86-.87,4.45Z"/></g><g><path class="cls-1" d="M6.29,8.82s.84,1.51,.28,3.34c0,0-.44,1.76-2.09,1.25-.06-.02-.12-.03-.18-.04-.15-.02-.52-.09-.99-.46-.13-.1-.3-.1-.43,0-.33,.26-.99,.68-1.48,.47-.02,0-.04-.02-.06-.02-.15-.05-.91-.35-1.26-1.32-.03-.09-.05-.19-.05-.29,.01-.52,.08-2.42,.39-3.05,0,0,2.46-1.2,5.87,.12Z"/><path class="cls-3" d="M5.05,13.53c-.18,0-.38-.03-.58-.09-.07-.02-.12-.03-.17-.04-.14-.01-.52-.09-1.01-.47-.12-.09-.28-.09-.4,0-.35,.27-1.01,.69-1.51,.47-.02,0-.04-.02-.06-.02-.15-.05-.93-.36-1.27-1.34-.03-.1-.05-.2-.05-.3,.01-.56,.08-2.43,.39-3.06h.01s2.51-1.2,5.9,.1h.01s.84,1.55,.29,3.38c0,0-.21,.82-.86,1.19-.21,.12-.44,.18-.69,.18Zm-1.96-.72c.08,0,.16,.03,.23,.08,.47,.37,.84,.44,.98,.46,.06,0,.11,.02,.19,.04,.47,.14,.88,.12,1.23-.08,.62-.35,.83-1.14,.83-1.15,.53-1.73-.21-3.18-.28-3.31-3.26-1.25-5.67-.19-5.83-.12-.3,.63-.37,2.47-.38,3.03,0,.09,.01,.19,.04,.28,.34,.95,1.09,1.25,1.24,1.3,.02,0,.04,.01,.06,.02,.48,.21,1.12-.2,1.46-.46,.07-.05,.15-.08,.23-.08Z"/></g></svg>