<?xml version="1.0" encoding="UTF-8"?><svg id="katman_1" xmlns="http://www.w3.org/2000/svg" viewBox="0 0 5.92 11.89"><defs><style>.cls-1{fill:#f5f5f5;}.cls-2{fill:#f2ecbe;}.cls-3{fill:#919191;}</style></defs><g><path class="cls-2" d="M5,7.23s-1.54-1.09-4.12,0c0,0-.11-4.49,.22-5.7,0,0,.4-1.91,.94-.71,.06,.13,.09,.27,.09,.41v1.45s.56-1.71,1.15-1.66c0,0,.38,.09,.54,.71,0,0,.06-2.61,.73-1.38,0,0,.46,.73,.44,1.84,0,0,.15,4.52,0,5.04Z"/><path class="cls-3" d="M5.02,7.28l-.03-.02s-1.56-1.07-4.09,0l-.04,.02v-.04s-.1-4.51,.22-5.7c0-.04,.23-1.09,.59-1.12,.14-.02,.27,.12,.41,.41,.06,.13,.09,.27,.09,.42v1.28c.16-.43,.62-1.56,1.13-1.52,.02,0,.34,.08,.52,.57,.02-.43,.1-1.49,.4-1.57,.12-.03,.24,.08,.38,.34,0,0,.46,.75,.45,1.85,0,.18,.15,4.53,0,5.05v.04ZM1.68,.46h-.01c-.26,.03-.48,.79-.54,1.08-.31,1.12-.23,5.19-.22,5.65,2.33-.97,3.83-.15,4.08,0,.13-.66,0-4.95-.01-4.99,.01-1.08-.43-1.81-.44-1.82-.12-.23-.23-.33-.32-.31-.27,.06-.35,1.23-.36,1.68v.2l-.06-.19c-.16-.59-.52-.69-.52-.69h-.02c-.55,0-1.09,1.62-1.09,1.64l-.06,.17V1.24c0-.14-.03-.28-.08-.4-.11-.25-.23-.38-.33-.38Z"/></g><path class="cls-3" d="M3.75,6.81c-1.55-2.09-1.65-4.11-1.65-4.13h.06s.1,2.02,1.64,4.09l-.05,.03Z"/><path class="cls-3" d="M2.8,5.1l-.04-.04c.98-1.05,1.04-3.31,1.04-3.33h.06s-.06,2.3-1.06,3.37Z"/><g><path class="cls-1" d="M5,7.23s1.72,2.52,.4,3.79c0,0-.87,1.15-1.68,.51-.08-.07-.18-.11-.29-.12-.2-.02-.53,0-.89,.29-.02,.02-.05,.04-.07,.05-.16,.08-.74,.32-1.29-.29-.07-.07-.14-.14-.22-.2-.35-.25-1.29-1.09-.79-2.47,0,0,.29-1.08,.71-1.56,0,0,2.34-1.09,4.12,0Z"/><path class="cls-3" d="M2,11.89c-.25,0-.55-.09-.85-.42-.07-.07-.14-.14-.21-.19-.32-.23-1.31-1.09-.8-2.5,.01-.04,.29-1.09,.71-1.57h0s2.37-1.1,4.15,0h0s1.72,2.57,.4,3.83c-.02,.02-.48,.63-1.06,.71-.23,.03-.46-.04-.65-.2-.08-.06-.17-.1-.27-.12-.2-.02-.52,0-.87,.29-.03,.02-.05,.04-.08,.05-.08,.04-.26,.12-.48,.12ZM.9,7.25c-.41,.47-.7,1.53-.7,1.54-.5,1.38,.47,2.21,.78,2.44,.08,.06,.15,.12,.22,.2,.54,.59,1.1,.37,1.26,.29,.02-.01,.04-.03,.07-.05,.36-.29,.7-.32,.91-.3,.11,.01,.22,.06,.3,.13,.19,.15,.39,.21,.61,.18,.55-.07,1.02-.68,1.02-.69,1.26-1.21-.31-3.62-.4-3.75-1.71-1.04-3.96-.05-4.08,0Z"/></g></svg>