<?xml version="1.0" encoding="UTF-8"?><svg id="katman_1" xmlns="http://www.w3.org/2000/svg" viewBox="0 0 5.03 14.58"><defs><style>.cls-1{fill:#f5f5f5;}.cls-2{fill:#f2ecbe;}.cls-3{fill:#919191;}</style></defs><g><path class="cls-2" d="M4.03,6.33s-1.01,.66-2.61,0c0,0-.03,5.29,1.42,7.7,0,0,.69,1.08,1.07,.15,.09-.21,.12-.44,.1-.67-.08-1.07-.37-5.21,.02-7.18Z"/><path class="cls-3" d="M3.51,14.58c-.35,0-.68-.52-.7-.54-1.43-2.38-1.42-7.66-1.42-7.71v-.04l.04,.02c1.56,.64,2.57,0,2.58,0l.06-.04v.07c-.4,1.95-.13,5.98-.03,7.17,.02,.24-.01,.47-.1,.68-.1,.24-.23,.38-.4,.39h-.03ZM1.45,6.37c0,.51,.06,5.38,1.41,7.64,0,0,.35,.54,.67,.51,.14-.01,.26-.13,.35-.35,.08-.2,.11-.42,.1-.65-.09-1.18-.36-5.15,0-7.13-.23,.12-1.18,.53-2.54-.01Z"/></g><g><path class="cls-1" d="M4.03,6.33s.5-3.93,.85-4.76c.05-.11,.08-.23,.1-.35,.07-.49,.06-1.48-1.23-1.12C3.75,.1,1.87,.45,1.1,.29c-.03,0-.05-.01-.08-.02C.86,.23,.08,.09,.03,1.7,.03,1.7,.13,3.15,.72,4.23c0,0,.69,1.48,.7,2.1,0,0,1.48,.67,2.61,0Z"/><path class="cls-3" d="M2.85,6.66c-.77,0-1.44-.29-1.45-.3h-.02v-.03c-.01-.61-.69-2.07-.69-2.09C.11,3.18,0,1.72,0,1.7,.02,1.01,.18,.55,.47,.34c.23-.17,.47-.12,.56-.1h.01s.04,.02,.06,.02C1.87,.41,3.73,.08,3.74,.08c.46-.13,.81-.1,1.02,.1,.3,.26,.28,.78,.24,1.06-.02,.12-.05,.24-.1,.36-.35,.81-.84,4.71-.85,4.75h0v.02c-.39,.22-.81,.3-1.2,.3Zm-1.41-.34c.16,.07,1.52,.61,2.55,0,.04-.3,.51-3.94,.85-4.75,.05-.11,.08-.23,.1-.34,.04-.27,.06-.76-.22-1.01-.2-.18-.53-.21-.97-.08-.08,.01-1.89,.34-2.66,.19-.02,0-.04-.01-.06-.02h-.01c-.08-.03-.3-.07-.51,.09C.23,.59,.08,1.03,.06,1.7c0,.01,.11,1.46,.69,2.52,.03,.06,.68,1.47,.7,2.1Z"/></g></svg>