<?xml version="1.0" encoding="UTF-8"?><svg id="katman_1" xmlns="http://www.w3.org/2000/svg" viewBox="0 0 4.9 14.53"><defs><style>.cls-1{fill:#f5f5f5;}.cls-2{fill:#f2ecbe;}.cls-3{fill:#919191;}</style></defs><g><path class="cls-2" d="M.33,5.9s1.18,1.06,3.21,.2c0,0-.7,3.18-.99,4.41-.08,.32-.13,.64-.16,.96-.08,.76-.3,2.16-.85,2.54,0,0-1.32,1.3-1.33-.32,0,0,.59-2.78,.34-4.89l-.2-2.9Z"/><path class="cls-3" d="M.65,14.53c-.05,0-.11,0-.15-.03-.21-.09-.32-.36-.32-.81,0-.03,.59-2.81,.34-4.89l-.21-2.97,.05,.05s1.19,1.03,3.18,.19l.05-.02v.05s-.71,3.19-1,4.41c-.07,.3-.13,.63-.16,.96-.08,.79-.3,2.17-.87,2.56-.02,.02-.51,.5-.9,.5ZM.37,5.97l.2,2.83c.25,2.09-.33,4.87-.34,4.9,0,.42,.1,.68,.29,.75,.37,.15,.99-.45,1-.46,.55-.38,.77-1.75,.85-2.53,.03-.34,.09-.66,.16-.97,.27-1.13,.89-3.93,.98-4.35-1.75,.72-2.89,0-3.13-.18Z"/></g><g><path class="cls-1" d="M3.54,6.1s1.03-1.64,1.18-3.65c.01-.16,.04-.32,.07-.47,.1-.46,.23-1.49-.52-1.62-.1-.02-.2-.04-.29-.06-.48-.15-1.97-.54-2.89,.05C1.09,.34-.14,.93,.05,2.5l.29,3.4s1.2,1.05,3.21,.2Z"/><path class="cls-3" d="M2.02,6.46c-1.08,0-1.69-.53-1.7-.53h0v-.02L.02,2.51C-.17,.94,1.07,.32,1.08,.32c.94-.6,2.46-.19,2.91-.05,.1,.03,.19,.05,.29,.06,.2,.03,.35,.13,.45,.28,.25,.38,.17,1.02,.09,1.37-.04,.17-.06,.32-.07,.47-.15,2-1.18,3.65-1.19,3.67h-.01c-.58,.26-1.09,.34-1.53,.34Zm-1.66-.57c.11,.09,1.28,.98,3.16,.19,.08-.12,1.03-1.72,1.18-3.63,.01-.15,.03-.3,.07-.47,.07-.34,.16-.96-.08-1.32-.1-.14-.23-.23-.41-.26-.1-.02-.2-.04-.3-.07-.44-.14-1.95-.54-2.87,.05-.02,0-1.21,.6-1.03,2.13l.29,3.39Z"/></g></svg>