<?xml version="1.0" encoding="UTF-8"?><svg id="katman_1" xmlns="http://www.w3.org/2000/svg" viewBox="0 0 5.05 14.96"><defs><style>.cls-1{fill:#f5f5f5;}.cls-2{fill:#f2ecbe;}.cls-3{fill:#919191;}</style></defs><g><path class="cls-2" d="M3.75,6.13s-1.11,.41-2.51,0c0,0,.1,4.1,.3,5.32,0,0,.23,2.86,1.16,3.48,0,0,.46,.07,.63-.64,0,0,.13-3.97,.28-4.94,0,0,.25-2.56,.13-3.21Z"/><path class="cls-3" d="M2.74,14.96s-.03,0-.03,0h-.01c-.94-.63-1.17-3.39-1.18-3.5-.2-1.2-.3-5.28-.3-5.32v-.04h.04c1.37,.41,2.48,.02,2.49,.01h.03v.02c.13,.65-.11,3.12-.12,3.22-.15,.95-.28,4.89-.28,4.93-.16,.62-.53,.67-.64,.67Zm-.02-.06c.06,0,.44,.01,.6-.62,0-.03,.13-3.98,.28-4.93,0-.02,.24-2.48,.13-3.17-.19,.06-1.22,.35-2.45,0,.01,.42,.11,4.14,.3,5.27,0,.03,.24,2.84,1.15,3.46Z"/></g><g><path class="cls-1" d="M3.75,6.13s1.16-2.87,1.27-3.75c0,0,.17-1.08-.73-1.4-.06-.02-.12-.05-.17-.08L2.89,.17c-.15-.09-.31-.14-.48-.14-.46-.01-1.37,.04-1.84,.58C.57,.61-.34,1.73,.2,2.68c.07,.13,.14,.26,.18,.41,.21,.71,.81,2.74,.86,3.05,0,0,1.33,.41,2.51,0Z"/><path class="cls-3" d="M2.58,6.34c-.74,0-1.34-.18-1.35-.18h-.02v-.02c-.06-.32-.68-2.41-.87-3.04-.04-.12-.09-.25-.18-.4C-.37,1.74,.54,.61,.55,.6,1.01,.05,1.91-.01,2.41,0c.17,0,.35,.06,.5,.15l1.22,.73c.06,.03,.12,.06,.17,.08,.91,.32,.75,1.42,.75,1.43-.1,.87-1.26,3.72-1.27,3.75h0v.02c-.41,.14-.82,.18-1.19,.18Zm-1.31-.23c.16,.04,1.38,.37,2.46,0,.08-.2,1.16-2.9,1.26-3.73,0-.01,.15-1.06-.71-1.37-.05-.02-.12-.04-.18-.08L2.88,.2c-.14-.09-.31-.13-.47-.14-.48-.01-1.36,.04-1.81,.57,0,.01-.9,1.11-.37,2.03,.09,.16,.15,.29,.19,.41,.19,.62,.79,2.66,.86,3.03Z"/></g></svg>