<?xml version="1.0" encoding="UTF-8"?><svg id="katman_1" xmlns="http://www.w3.org/2000/svg" viewBox="0 0 4.84 14.49"><defs><style>.cls-1{fill:#f5f5f5;}.cls-2{fill:#f2ecbe;}.cls-3{fill:#919191;}</style></defs><g><path class="cls-2" d="M4.04,5.87s-1.15,.52-2.9,.12c0,0,.98,6.35,1.6,7.78,0,0,.42,1.25,.93,.41,0,0-.07-4.52,.12-5.4,0,0,.3-2.55,.25-2.9Z"/><path class="cls-3" d="M3.31,14.49h-.03c-.33-.04-.56-.69-.56-.72-.62-1.42-1.59-7.72-1.6-7.78v-.04h.03c1.73,.41,2.87-.1,2.88-.11l.03-.02v.04c.06,.35-.24,2.81-.25,2.91-.18,.87-.12,5.35-.12,5.4h0v.02c-.13,.2-.26,.31-.39,.31ZM1.17,6.02c.09,.55,1.01,6.38,1.59,7.73,0,0,.22,.65,.52,.68,.12,.01,.24-.08,.36-.27,0-.22-.06-4.55,.12-5.4,0-.02,.28-2.4,.26-2.86-.21,.08-1.29,.46-2.84,.11Z"/></g><g><path class="cls-1" d="M4.04,5.87s.88-1.86,.76-3.07c0,0,.08-1.4-1.37-2.01C3.43,.79,2.4,.16,2.13,.05,2.13,.05,1.93-.27,.33,1.77,.33,1.77-.35,2.83,.33,3.86c0,0,.74,1.7,.81,2.13,0,0,1.55,.37,2.9-.12Z"/><path class="cls-3" d="M2.44,6.15c-.74,0-1.3-.13-1.31-.13h-.02v-.02c-.07-.42-.8-2.1-.81-2.12-.68-1.03,0-2.11,0-2.12C1.51,.21,1.94,0,2.09,0c.03,0,.05,.01,.06,.02,.28,.12,1.26,.72,1.3,.74,1.45,.61,1.38,2.02,1.38,2.03,.12,1.2-.75,3.06-.76,3.08h-.02c-.54,.21-1.11,.27-1.61,.27Zm-1.28-.18c.18,.04,1.61,.33,2.86-.12,.07-.15,.86-1.9,.75-3.05,0-.02,.07-1.39-1.35-1.98-.01,0-1.03-.63-1.3-.74h-.01s0-.02-.03-.02c-.12,0-.52,.19-1.73,1.73,0,0-.66,1.06,0,2.06,.03,.07,.73,1.66,.81,2.12Z"/></g></svg>