<?xml version="1.0" encoding="UTF-8"?><svg id="katman_1" xmlns="http://www.w3.org/2000/svg" viewBox="0 0 5.34 16.19"><defs><style>.cls-1{fill:#f5f5f5;}.cls-2{fill:#f2ecbe;}.cls-3{fill:#919191;}</style></defs><g><path class="cls-2" d="M1.19,6.12s1.55,.92,3.12-.07c0,0-.51,5.62-1.33,7.77,0,0-.44,2.24-1.52,2.33,0,0-.46,.3-.27-1.69,0,0,.16-3.11,.02-4.24-.04-.31-.06-.63-.07-.94,0-.8,0-2.18,.05-3.15Z"/><path class="cls-3" d="M1.4,16.19s-.05,0-.08-.02c-.2-.12-.25-.71-.16-1.71,0-.03,.16-3.12,.02-4.23-.04-.34-.07-.65-.07-.95,0-.76,0-2.17,.05-3.16v-.05l.04,.02s1.56,.9,3.09-.07l.05-.03v.06c-.01,.06-.52,5.65-1.34,7.78-.02,.09-.45,2.25-1.54,2.35-.01,0-.04,.02-.07,.02Zm-.18-10.02c-.05,.98-.05,2.36-.05,3.11,0,.3,.02,.61,.07,.94,.14,1.12-.01,4.21-.02,4.24-.12,1.3,.03,1.6,.13,1.66,.05,.03,.09,0,.09,0h.01c1.05-.09,1.49-2.29,1.49-2.31,.77-2,1.27-7.11,1.33-7.71-1.41,.85-2.81,.2-3.06,.06Z"/></g><g><path class="cls-1" d="M4.31,6.05s.78-1.29,.93-2.04c0,0,.27-1.32-.25-1.62,0,0-1.59-1.5-2.08-2.24,0,0-.47-.37-1.08,.2C1.83,.35-.25,1.83,.06,2.91c.04,.12,.07,.25,.1,.38,.14,.62,.54,2.24,1.03,2.83,0,0,1.6,.92,3.12-.07Z"/><path class="cls-3" d="M2.76,6.53c-.89,0-1.58-.38-1.59-.39h0C.68,5.54,.28,3.95,.13,3.29c-.02-.1-.05-.2-.08-.3l-.02-.07C-.28,1.83,1.73,.39,1.81,.32c.62-.58,1.11-.21,1.11-.2h0c.48,.74,2.06,2.23,2.07,2.25,.53,.31,.27,1.59,.26,1.65-.15,.74-.92,2.03-.93,2.05h0c-.53,.36-1.08,.47-1.57,.47Zm-1.55-.44c.09,.05,1.64,.87,3.08-.07,.06-.09,.78-1.32,.92-2.02,0-.01,.26-1.3-.24-1.59-.02-.02-1.59-1.51-2.08-2.25-.05-.03-.48-.33-1.04,.2-.02,.02-2.06,1.48-1.76,2.53l.02,.07c.03,.1,.06,.2,.08,.3,.15,.65,.54,2.23,1.02,2.82Z"/></g></svg>