<?xml version="1.0" encoding="UTF-8"?><svg id="katman_1" xmlns="http://www.w3.org/2000/svg" viewBox="0 0 7.23 13.33"><defs><style>.cls-1{fill:#f5f5f5;}.cls-2{fill:#f2ecbe;}.cls-3{fill:#919191;}</style></defs><g><path class="cls-2" d="M5.5,5.05s-1.89,.39-4.37-.07c0,0-.41,4.1,1.01,6.01,0,0,1.42,2.33,2.19,2.21,0,0,.51-.07-.07-1.28,0,0-.88-3.05-.88-3.14,0,0-.02-.93,.64-.27,0,0,.78,1.03,.91,2.24,0,0,.29,1.34,1.62,2.45,0,0,.89,.6,.56-1.25,0,0-1.79-5.42-1.62-6.9Z"/><path class="cls-3" d="M6.85,13.33c-.15,0-.29-.09-.3-.1-1.33-1.1-1.63-2.46-1.63-2.47-.13-1.2-.9-2.22-.91-2.23-.18-.18-.33-.25-.43-.21-.17,.07-.16,.46-.16,.47,0,.09,.63,2.29,.88,3.13,.33,.7,.3,1.03,.22,1.18-.07,.12-.17,.14-.18,.14-.02,0-.04,0-.06,0-.79,0-2.1-2.14-2.16-2.23-1.41-1.89-1.02-5.98-1.02-6.03v-.03h.03c2.45,.45,4.34,.08,4.36,.07h.04v.03c-.17,1.46,1.6,6.84,1.61,6.89,.14,.74,.09,1.19-.13,1.34-.05,.04-.11,.05-.17,.05Zm-.27-.14s.24,.16,.41,.05c.14-.09,.27-.38,.1-1.27-.02-.05-1.76-5.35-1.62-6.87-.28,.05-2.06,.34-4.31-.07-.03,.38-.32,4.17,1.01,5.96,.02,.03,1.42,2.31,2.17,2.2,0,0,.08-.01,.14-.11,.07-.14,.1-.45-.22-1.13-.09-.32-.88-3.07-.88-3.15,0-.02,0-.43,.2-.52,.12-.05,.29,.02,.49,.23,.01,.01,.79,1.05,.92,2.26,0,.01,.3,1.34,1.61,2.43h0Z"/></g><path class="cls-3" d="M3.63,8.29h-.06c.05-.42,.12-1.37,.12-1.38,.05-.43-.08-.69-.19-.83-.13-.16-.2-.37-.2-.6v-.28h.06v.28c0,.21,.07,.41,.19,.56,.12,.15,.25,.42,.2,.87,0,0-.07,.96-.12,1.37Z"/><g><path class="cls-1" d="M5.5,5.05s-.07-.46,.3-.76c0,0,.79-.59,.84-2.06,0,0,0-1.18-1.01-1.76,0,0-1.13-.78-2.04,.25-.06,.07-.16,.07-.22,0-.02-.02-.04-.04-.06-.07C2.46-.27,.96-.15,.24,.88c-.01,.02-.03,.04-.04,.06C.07,1.14,.02,1.38,.03,1.61c.03,.53,.23,1.62,1.1,3.37,0,0,2.25,.45,4.37,.07Z"/><path class="cls-3" d="M3.65,5.23c-1.39,0-2.5-.22-2.52-.22h-.01v-.02C.22,3.22,.03,2.11,0,1.61c-.02-.25,.04-.49,.17-.69,.01-.02,.03-.04,.04-.06C.57,.36,1.13,.04,1.75,0c.6-.04,1.18,.19,1.58,.63,.02,.02,.04,.05,.06,.07,.02,.03,.05,.04,.09,.04h0s.07-.01,.09-.04c.92-1.03,2.07-.26,2.08-.25,1.01,.57,1.02,1.77,1.02,1.78-.05,1.47-.85,2.08-.86,2.08-.35,.29-.29,.73-.29,.73v.03h-.02c-.63,.12-1.27,.16-1.86,.16Zm-2.49-.27c.19,.04,2.32,.42,4.32,.07,0-.11-.01-.49,.32-.76,0,0,.78-.6,.83-2.04,0-.01-.01-1.17-1-1.73-.05-.03-1.12-.75-2.01,.24-.03,.04-.08,.06-.13,.06h0c-.05,0-.1-.02-.13-.06-.02-.02-.04-.04-.06-.07C2.9,.25,2.34,.02,1.75,.06,1.15,.1,.61,.41,.26,.9c-.01,.02-.03,.04-.04,.06-.12,.19-.18,.41-.16,.65,.03,.49,.21,1.59,1.09,3.35Z"/></g></svg>