<?xml version="1.0" encoding="UTF-8"?><svg id="katman_1" xmlns="http://www.w3.org/2000/svg" viewBox="0 0 6.28 13.59"><defs><style>.cls-1{fill:#f5f5f5;}.cls-2{fill:#f2ecbe;}.cls-3{fill:#919191;}</style></defs><g><path class="cls-2" d="M.85,5.47s3.12,.39,4.81-.19c0,0,.1,2.78-.15,3.78,0,0-.29,.81-.29,1.33,0,0,.1,2.24-.12,2.66,0,0-.47,1.02-.83-.62,0,0,.41,1.82-1.01,.83,0,0-2.09-1.65-2.53-4.49,0,0-.3-1.67,.12-3.31Z"/><path class="cls-3" d="M3.95,13.59c-.18,0-.41-.1-.7-.3-.02-.02-2.11-1.69-2.54-4.51,0-.02-.3-1.69,.12-3.32v-.02h.03s3.13,.38,4.8-.18h.04v.03s.1,2.8-.15,3.79c0,.01-.29,.81-.29,1.33,0,.09,.1,2.25-.12,2.68,0,.01-.17,.35-.38,.33-.15-.02-.28-.2-.39-.54,.01,.25-.02,.55-.21,.67-.06,.04-.12,.06-.2,.06ZM.87,5.5c-.41,1.6-.11,3.25-.11,3.27,.43,2.79,2.5,4.46,2.52,4.47,.39,.27,.67,.35,.84,.24,.3-.2,.14-.98,.13-1.04h0l.06-.02h0c.16,.73,.33,.9,.45,.91,.17,.02,.32-.29,.32-.29,.21-.41,.12-2.63,.12-2.65,0-.52,.28-1.31,.29-1.34,.23-.91,.16-3.39,.15-3.73-1.6,.53-4.46,.21-4.76,.18Z"/></g><g><path class="cls-2" d="M3.43,5.59s.79,2.42,.49,4.06c0,0-.05,1.72,.35,2.78"/><path class="cls-3" d="M4.25,12.45c-.4-1.06-.36-2.78-.36-2.8,.3-1.62-.48-4.03-.49-4.05l.05-.02s.79,2.45,.49,4.07c0,.01-.05,1.72,.35,2.77l-.05,.02Z"/></g><g><path class="cls-1" d="M5.66,5.28s1.33-2.41,0-4.07c0,0-.86-1.8-2.13-.61,0,0-.39,.53-.98-.05-.15-.15-.33-.26-.52-.34C1.59,.02,.87-.17,.54,.46,.54,.46-.09,1.43,.05,2.45c0,0,0,.9,.44,1.59,.21,.32,.35,.68,.38,1.06,0,.14,0,.27-.02,.36,0,0,2.93,.39,4.81-.19Z"/><path class="cls-3" d="M3.01,5.63c-1.17,0-2.14-.13-2.16-.13h-.03v-.03c.03-.08,.03-.2,.02-.35-.02-.35-.15-.71-.37-1.05C.02,3.37,.02,2.46,.02,2.45-.12,1.43,.51,.46,.52,.45,.87-.21,1.63,0,2.05,.19c.21,.09,.39,.21,.53,.35,.19,.19,.38,.27,.56,.26,.23-.02,.38-.21,.38-.21,.35-.33,.71-.47,1.06-.4,.69,.13,1.1,.98,1.12,1.01,1.32,1.65,0,4.07,0,4.1h-.02c-.79,.26-1.79,.33-2.66,.33Zm-2.12-.18c.32,.04,3.01,.35,4.76-.19,.09-.17,1.26-2.46,0-4.03,0-.01-.42-.87-1.08-.99-.33-.06-.67,.07-1,.38,0,0-.15,.21-.42,.23-.2,.02-.4-.08-.6-.28-.14-.14-.31-.25-.51-.34C1.53,.02,.88-.11,.57,.48c0,.01-.63,.97-.49,1.97,0,.01,0,.91,.44,1.58,.23,.35,.36,.71,.38,1.08,0,.14,0,.25-.01,.34Z"/></g></svg>