<?xml version="1.0" encoding="UTF-8"?><svg id="katman_1" xmlns="http://www.w3.org/2000/svg" viewBox="0 0 6.51 13.93"><defs><style>.cls-1{fill:#f5f5f5;}.cls-2{fill:#f2ecbe;}.cls-3{fill:#919191;}</style></defs><g><path class="cls-2" d="M.69,5.48s3.39,.76,5.08-.27c0,0,.16,1.47,.21,2.28,.01,.21,.04,.41,.09,.62,.16,.65,.47,2.24,.02,3.65,0,0-.98,3.31-1.58,1.72-.04-.1-.05-.22-.05-.33,.04-.58,.14-2.54-.03-3.03,0,0-.41-1.59-.79-1.98,0,0-.67,.71,.01,2.01,.05,.1,.09,.21,.11,.32,.11,.5,.37,1.9,.16,2.69,0,0-.07,1.17-1.43-1.65,0,0-1.82-2.94-1.81-3.92,0,0-.07-.89,0-2.11Z"/><path class="cls-3" d="M4.89,13.93c-.16,0-.29-.15-.41-.45-.04-.1-.06-.22-.05-.34,.04-.59,.14-2.54-.03-3.02,0-.02-.39-1.53-.77-1.95-.1,.13-.56,.81,.04,1.95,.05,.1,.09,.21,.12,.32,.12,.55,.36,1.92,.16,2.71,0,0-.01,.23-.16,.26-.25,.05-.7-.59-1.33-1.9-.07-.12-1.83-2.95-1.81-3.93,0,0-.07-.91,0-2.11v-.03h.03s3.4,.75,5.06-.26l.04-.02v.04s.17,1.48,.21,2.28c.01,.21,.04,.42,.09,.61,.16,.63,.47,2.24,.02,3.67-.03,.09-.64,2.15-1.22,2.17h0Zm-1.25-5.84l.02,.02c.39,.4,.78,1.93,.8,2,.17,.49,.07,2.45,.03,3.04,0,.11,0,.22,.04,.32,.1,.27,.22,.41,.35,.41h0c.53-.02,1.16-2.11,1.17-2.13,.44-1.41,.13-3.01-.02-3.64-.05-.2-.08-.41-.09-.62-.04-.72-.18-1.98-.2-2.23-1.6,.94-4.68,.33-5.03,.26-.06,1.18,0,2.06,0,2.07-.02,.96,1.78,3.87,1.8,3.9,.82,1.69,1.15,1.9,1.27,1.88,.08-.02,.11-.16,.11-.21,.2-.78-.04-2.14-.16-2.69-.02-.11-.06-.22-.11-.31-.69-1.31-.02-2.03,0-2.04l.02-.02Z"/></g><path class="cls-3" d="M3.46,8.39c-.09-.13-.16-2.38-.17-2.64h.06c.03,1,.1,2.52,.16,2.61l-.05,.03Z"/><g><path class="cls-1" d="M5.77,5.2s.99-1.67,.64-3.57c-.05-.28-.17-.55-.36-.77-.41-.48-1.27-1.1-2.41,.03,0,0,.05,.27-.96-.53C2.26,.04,1.7-.07,1.2,.12,.82,.26,.41,.52,.16,1.02c-.08,.16-.12,.33-.13,.51-.01,.67,.01,2.65,.66,3.95,0,0,3.37,.75,5.08-.27Z"/><path class="cls-3" d="M3.2,5.76c-1.32,0-2.5-.26-2.52-.26h-.01v-.02C0,4.17,0,2.12,0,1.53c0-.18,.05-.36,.13-.52C.35,.58,.71,.27,1.19,.09,1.69-.09,2.26,0,2.69,.35c.76,.6,.89,.57,.91,.56h0v-.02h0c.45-.46,.91-.67,1.34-.66,.5,.02,.88,.35,1.11,.61,.19,.22,.31,.49,.37,.79,.35,1.89-.63,3.57-.64,3.59h0c-.7,.42-1.67,.55-2.58,.55Zm-2.5-.31c.23,.05,3.41,.7,5.04-.27,.06-.11,.96-1.74,.63-3.54-.05-.29-.18-.55-.36-.76-.22-.26-.59-.57-1.07-.59-.42-.02-.85,.19-1.29,.62,0,.02,0,.04-.03,.05-.04,.02-.15,.09-.98-.57C2.24,.06,1.69-.03,1.21,.14,.74,.32,.4,.62,.18,1.03c-.08,.15-.12,.32-.12,.5-.01,.59,0,2.62,.65,3.92Z"/></g></svg>