<?xml version="1.0" encoding="UTF-8"?><svg id="katman_1" xmlns="http://www.w3.org/2000/svg" viewBox="0 0 5.05 14.45"><defs><style>.cls-1{fill:#f5f5f5;}.cls-2{fill:#f2ecbe;}.cls-3{fill:#919191;}</style></defs><g><path class="cls-2" d="M3.58,6.29s-1.14,.63-2.53,0c0,0,.35,4.76,.13,6.51,0,0-.33,1.57,.48,1.62,0,0,.75,.08,1.33-2.31,0-.03,.01-.06,.02-.09,.07-.45,.65-4.16,.58-5.73Z"/><path class="cls-3" d="M1.66,14.45h-.01c-.16-.01-.29-.08-.38-.2-.33-.43-.13-1.41-.12-1.45,.22-1.72-.12-6.45-.13-6.5v-.05l.04,.02c1.36,.62,2.49,0,2.51,0l.04-.02v.05c.07,1.57-.51,5.31-.57,5.73,0,.03-.01,.06-.02,.09-.55,2.24-1.24,2.33-1.35,2.33ZM1.08,6.34c.04,.5,.34,4.83,.12,6.46,0,.01-.2,.99,.11,1.41,.08,.11,.2,.17,.34,.18,0,0,.74,.03,1.3-2.29,0-.03,.01-.06,.02-.09,.07-.42,.64-4.09,.58-5.68-.21,.1-1.25,.54-2.47,0Z"/></g><g><path class="cls-1" d="M3.58,6.29s.79-2.6,1.33-3.87c0,0,.39-1.16-.26-1.93-.19-.22-.47-.32-.76-.3-.59,.05-1.79,.12-2.46-.12-.05-.02-.09-.03-.14-.04C.95,0-.35-.09,.14,1.48c0,0,.74,3.61,.91,4.81,0,0,1.19,.64,2.53,0Z"/><path class="cls-3" d="M2.33,6.6c-.75,0-1.29-.28-1.3-.29h-.01v-.02C.85,5.11,.12,1.52,.11,1.49-.06,.95-.03,.55,.18,.3,.48-.05,1.06-.01,1.29,.02c.04,0,.09,.02,.14,.04,.66,.23,1.82,.17,2.45,.11,.31-.03,.6,.09,.78,.31,.65,.77,.27,1.94,.27,1.95-.53,1.25-1.33,3.84-1.33,3.87h0v.02c-.46,.21-.89,.28-1.27,.28Zm-1.26-.33c.13,.06,1.25,.58,2.48,0,.06-.19,.81-2.65,1.33-3.86,0,0,.37-1.15-.26-1.9-.17-.2-.45-.31-.73-.29-.64,.06-1.81,.12-2.48-.12-.05-.02-.09-.03-.13-.03C1.06,.05,.51,0,.23,.33,.02,.57,0,.95,.16,1.47c0,.04,.74,3.6,.91,4.8Z"/></g></svg>