<?xml version="1.0" encoding="UTF-8"?><svg id="katman_1" xmlns="http://www.w3.org/2000/svg" viewBox="0 0 4.91 14.56"><defs><style>.cls-1{fill:#f5f5f5;}.cls-2{fill:#f2ecbe;}.cls-3{fill:#919191;}</style></defs><g><path class="cls-2" d="M1.42,6.12s2.01,.93,3.14-.2l-.15,4.6s0,2.18,.27,3.08c.04,.14,.06,.28,.05,.43-.04,.35-.22,.84-1.08,.17-.24-.19-.44-.44-.56-.73-.21-.47-.53-1.3-.58-2.09-.01-.21-.04-.41-.08-.61L1.42,6.12Z"/><path class="cls-3" d="M4.34,14.56c-.18,0-.42-.11-.71-.34-.25-.19-.44-.45-.57-.74-.19-.44-.53-1.29-.58-2.1-.01-.22-.04-.42-.08-.61L1.38,6.07l.05,.02s2,.9,3.11-.19l.05-.05-.15,4.67s0,2.19,.27,3.07c.05,.15,.06,.3,.05,.44-.03,.27-.12,.44-.27,.5-.04,.02-.09,.03-.14,.03ZM1.46,6.17l.99,4.59c.04,.19,.07,.39,.08,.62,.05,.8,.38,1.65,.58,2.08,.12,.28,.32,.53,.55,.72,.35,.28,.62,.38,.79,.31,.16-.07,.22-.29,.24-.46,.01-.13,0-.27-.05-.42-.27-.89-.27-3.07-.27-3.09l.15-4.53c-1.04,.95-2.75,.31-3.07,.17Z"/></g><g><path class="cls-1" d="M4.56,5.92s.49-2.66,.27-4.06c0,0,.09-1.51-1.75-1.82C3.07,.05,1.15-.14,.24,.62,.24,.62-.32,1.2,.39,3.64c0,0,.42,1.78,1.03,2.48,0,0,1.89,.95,3.14-.2Z"/><path class="cls-3" d="M3.02,6.52c-.86,0-1.6-.36-1.61-.37h0C.79,5.44,.38,3.72,.36,3.64-.34,1.22,.19,.62,.22,.6,1.13-.16,3.06,.02,3.08,.02c1.85,.31,1.78,1.83,1.78,1.85,.22,1.38-.27,4.03-.27,4.06h0v.02c-.48,.43-1.05,.57-1.57,.57Zm-1.58-.42c.11,.05,1.91,.89,3.09-.19,.03-.17,.48-2.7,.27-4.04,0-.07,.06-1.5-1.73-1.8-.02,0-1.92-.18-2.81,.56,0,0-.53,.61,.16,2.99,0,.02,.43,1.78,1.02,2.47Z"/></g></svg>