<?xml version="1.0" encoding="UTF-8"?><svg id="katman_1" xmlns="http://www.w3.org/2000/svg" viewBox="0 0 4.98 14.99"><defs><style>.cls-1{fill:#f5f5f5;}.cls-2{fill:#f2ecbe;}.cls-3{fill:#919191;}</style></defs><g><path class="cls-2" d="M1.22,6.17s1.28,.46,2.6,0c0,0-.19,4.22-.37,5.69,0,0-.47,3.09-1.13,3.11,0,0-.61,.03-.66-.61,0,0-.05-3.02-.24-3.66,0,0-.3-3.56-.2-4.52Z"/><path class="cls-3" d="M2.3,14.99c-.09,0-.63-.03-.67-.63,0-.03-.05-3.03-.24-3.66,0-.04-.3-3.58-.2-4.53v-.04h.04s1.29,.46,2.58,.01h.04v.03s-.19,4.24-.37,5.69c-.02,.13-.48,3.11-1.16,3.13h-.01ZM1.24,6.2c-.09,1,.2,4.45,.21,4.48,.18,.63,.23,3.54,.24,3.66,.05,.6,.6,.58,.63,.58,.63-.02,1.1-3.05,1.1-3.08,.17-1.37,.35-5.2,.37-5.64-1.18,.39-2.33,.06-2.54,0Z"/></g><g><path class="cls-1" d="M3.82,6.17s.5-2.57,1.01-3.54c.06-.1,.09-.22,.11-.33,.05-.47,.03-1.59-1.21-2.08C3.73,.21,3.15,.02,2.52,.03c-.11,0-.22,.03-.32,.07C1.76,.32,.39,1.01,.13,1.61,.13,1.61-.23,1.93,.39,3.83l.83,2.33s1.24,.43,2.6,0Z"/><path class="cls-3" d="M2.54,6.39c-.77,0-1.32-.19-1.33-.19h-.01L.36,3.84C-.22,2.04,.06,1.64,.11,1.59,.38,.99,1.77,.28,2.19,.08,2.29,.03,2.4,0,2.52,0c.63,0,1.21,.18,1.22,.19,1.26,.5,1.28,1.65,1.23,2.11-.01,.11-.05,.23-.11,.34-.5,.95-1,3.5-1.01,3.53v.02h-.02c-.45,.15-.9,.2-1.28,.2Zm-1.3-.24c.13,.04,1.29,.4,2.55,0,.04-.22,.53-2.61,1.01-3.53,.06-.11,.09-.22,.1-.32,.05-.45,.03-1.57-1.19-2.05,0,0-.58-.19-1.2-.18-.11,0-.21,.03-.3,.07C1.8,.33,.42,1.03,.16,1.62h0s-.33,.36,.27,2.21l.82,2.32Z"/></g></svg>