<?xml version="1.0" encoding="UTF-8"?><svg id="katman_1" xmlns="http://www.w3.org/2000/svg" viewBox="0 0 4.81 14.5"><defs><style>.cls-1{fill:#f5f5f5;}.cls-2{fill:#f2ecbe;}.cls-3{fill:#919191;}</style></defs><g><path class="cls-2" d="M3.7,5.85s-1.48,.51-2.91,0c0,0,.69,5.97,.37,7.83,0,0-.1,1.64,.84,.22,0,0,1.05-3.32,1.7-8.05Z"/><path class="cls-3" d="M1.4,14.5s-.04,0-.06,0c-.25-.09-.22-.75-.22-.82,.32-1.84-.36-7.76-.37-7.82v-.05l.04,.02c1.4,.5,2.88,0,2.89,0h.04v.03c-.65,4.67-1.69,8.02-1.7,8.05h0c-.26,.4-.47,.6-.62,.6ZM.82,5.89c.06,.56,.67,6.03,.37,7.79-.01,.19,0,.7,.18,.76,.09,.03,.27-.04,.61-.56,.04-.13,1.06-3.42,1.69-8-.25,.08-1.57,.43-2.84,0Z"/></g><g><path class="cls-1" d="M3.7,5.85s.57-1.8,.95-2.49c.09-.16,.14-.35,.13-.53,0-.47-.12-1.28-.8-1.75-.08-.05-.15-.12-.21-.19-.17-.19-.5-.55-.79-.76-.15-.11-.34-.13-.51-.06C1.89,.31,.43,1.03,.09,2.19c0,0-.38,2.08,.7,3.66,0,0,1.35,.51,2.91,0Z"/><path class="cls-3" d="M2.26,6.1c-.86,0-1.47-.22-1.48-.23h-.01C-.31,4.29,.06,2.21,.06,2.18,.41,1.02,1.85,.3,2.46,.04c.18-.07,.38-.05,.53,.06,.29,.21,.63,.57,.8,.77,.07,.08,.13,.14,.21,.19,.69,.48,.8,1.31,.81,1.77,0,.19-.04,.38-.14,.55-.37,.67-.94,2.46-.94,2.48h0v.02c-.53,.17-1.03,.22-1.46,.22Zm-1.45-.28c.12,.04,1.41,.47,2.87,0,.05-.17,.59-1.83,.94-2.48,.09-.16,.13-.34,.13-.52,0-.45-.12-1.26-.79-1.73-.08-.05-.15-.12-.22-.2-.17-.19-.5-.55-.79-.76-.14-.1-.32-.12-.48-.05C1.88,.35,.46,1.06,.12,2.2c0,.02-.36,2.07,.69,3.63Z"/></g></svg>