<?xml version="1.0" encoding="UTF-8"?><svg id="katman_1" xmlns="http://www.w3.org/2000/svg" viewBox="0 0 5.25 16.32"><defs><style>.cls-1{fill:#f5f5f5;}.cls-2{fill:#f2ecbe;}.cls-3{fill:#919191;}</style></defs><g><path class="cls-2" d="M4.1,6.2s.25,3.63,0,5.01c0,0-.03,3.17,.11,3.91,0,0,.23,2.15-1.09,.66,0,0-1.37-1.67-2.13-9.7,0,0,1.77,1,3.11,.13Z"/><path class="cls-3" d="M3.86,16.32c-.19,0-.44-.18-.76-.54-.01-.02-1.39-1.77-2.14-9.71v-.05l.04,.03s1.77,.98,3.08,.13l.04-.03v.05s.25,3.65,0,5.01c0,.03-.03,3.17,.11,3.89,0,.04,.11,1.03-.27,1.2-.04,.02-.07,.02-.11,.02ZM1.02,6.12c.75,7.87,2.11,9.61,2.12,9.63,.36,.4,.64,.58,.81,.5,.33-.15,.23-1.13,.23-1.14-.14-.73-.11-3.88-.11-3.91,.23-1.27,.03-4.52,0-4.96-1.22,.75-2.77,.02-3.06-.13Z"/></g><g><path class="cls-1" d="M4.1,6.2s1.62-2.9,.96-4.19c0,0-.56-.99-2.04-1.9-.12-.08-.27-.1-.41-.06s-.29,.12-.41,.32C2.21,.36,.43,2.55,.21,2.56c0,0-.72,1.08,.78,3.51,0,0,1.84,1.01,3.11,.13Z"/><path class="cls-3" d="M2.85,6.59c-.97,0-1.86-.48-1.88-.49h-.01C-.53,3.67,.15,2.59,.18,2.55h.02c.16-.02,1.3-1.36,1.98-2.2,.1-.17,.25-.28,.43-.33,.14-.04,.3-.01,.43,.07,1.46,.9,2.04,1.9,2.05,1.91,.66,1.29-.9,4.1-.96,4.22h0c-.39,.28-.84,.38-1.27,.38Zm-1.84-.54c.12,.06,1.86,.96,3.07,.13,.08-.15,1.59-2.92,.96-4.16,0,0-.58-1-2.03-1.89-.12-.07-.26-.09-.39-.06-.16,.04-.3,.15-.39,.31-.18,.22-1.72,2.12-2.01,2.21-.06,.11-.61,1.2,.79,3.46Z"/></g></svg>