<?xml version="1.0" encoding="UTF-8"?><svg id="katman_1" xmlns="http://www.w3.org/2000/svg" viewBox="0 0 7.24 13.32"><defs><style>.cls-1{fill:#f5f5f5;}.cls-2{fill:#f2ecbe;}.cls-3{fill:#919191;}</style></defs><g><path class="cls-2" d="M1.71,5.21s2.68,.24,4.37-.2c0,0-.03,3.75-.37,4.66,0,0-.78,2.4-2.45,3.48,0,0-1,.68-.39-1.06,0,0,.72-2.31,.88-2.97,.01-.05,.02-.09,.02-.14,.02-.24,.02-.93-.65-.36-.09,.07-.16,.17-.2,.27-.17,.36-.58,1.29-.76,2.03-.05,.22-.14,.44-.24,.64-.34,.67-1.07,1.92-1.65,1.73,0,0-.56-.42,0-1.9,0,0,1.18-3.32,1.43-6.16Z"/><path class="cls-3" d="M.4,13.32s-.09,0-.13-.02h0s-.57-.45,0-1.94c.01-.03,1.18-3.35,1.43-6.15v-.03h.03s2.7,.23,4.36-.2h.04v.03c0,.15-.04,3.76-.37,4.67,0,.02-.8,2.42-2.46,3.49-.01,0-.34,.23-.52,.09-.17-.13-.14-.53,.09-1.18,0-.02,.72-2.32,.88-2.97,.01-.05,.02-.09,.02-.14,0-.13,.02-.46-.13-.53-.1-.05-.26,.02-.47,.19-.08,.07-.15,.16-.2,.26-.17,.36-.58,1.29-.75,2.03-.05,.21-.13,.43-.24,.65-.35,.68-.99,1.76-1.55,1.76Zm-.11-.07c.56,.18,1.31-1.14,1.61-1.71,.11-.21,.19-.43,.24-.63,.17-.74,.59-1.67,.76-2.04,.05-.11,.12-.21,.21-.28,.23-.2,.41-.26,.53-.2,.17,.09,.18,.41,.17,.59,0,.05-.01,.1-.02,.15-.16,.66-.87,2.95-.88,2.97-.27,.78-.21,1.04-.11,1.12,.15,.11,.45-.09,.45-.09,1.64-1.06,2.43-3.44,2.44-3.46,.31-.85,.36-4.22,.37-4.61-1.58,.4-4.03,.22-4.32,.2-.26,2.8-1.42,6.11-1.43,6.14-.52,1.38-.06,1.83-.01,1.87Z"/></g><path class="cls-3" d="M3.49,8.39c-.2-1.77,.04-2.02,.09-2.05,.42-.55,.26-1.05,.26-1.06l.05-.02s.17,.54-.27,1.12h-.01s-.27,.17-.07,2.01h-.06Z"/><g><path class="cls-1" d="M6.08,5.01s.97-2.21,1.11-3.16c0,0,.23-.92-1.27-1.65,0,0-.79-.52-1.79,.24-.09,.07-.17,.15-.23,.25-.02,.04-.05,.08-.08,.13-.05,.08-.17,.1-.24,.04-.32-.26-1.13-.82-1.84-.41C1.75,.44,.41,.96,.55,2.76c0,0,.1,1.19,.89,1.81,.16,.13,.27,.31,.28,.51,0,.04,0,.09,0,.13,0,0,2.7,.23,4.37-.2Z"/><path class="cls-3" d="M3.36,5.3c-.92,0-1.64-.06-1.65-.06h-.03v-.03s0-.09,0-.13c0-.18-.1-.36-.26-.49-.79-.62-.9-1.82-.9-1.83C.38,.96,1.73,.42,1.74,.41,2.46,0,3.29,.57,3.61,.83c.03,.02,.07,.04,.11,.03s.07-.03,.09-.06c.03-.05,.06-.09,.08-.13,.06-.1,.14-.19,.23-.26,1-.75,1.81-.24,1.82-.24,1.49,.73,1.28,1.67,1.28,1.68-.14,.94-1.11,3.15-1.12,3.17h0v.02c-.82,.21-1.87,.27-2.74,.27Zm-1.62-.12c.29,.02,2.76,.2,4.32-.2,.08-.18,.97-2.25,1.11-3.14,0-.01,.2-.91-1.25-1.62-.01,0-.79-.5-1.76,.23-.09,.07-.16,.15-.22,.24-.02,.04-.05,.08-.08,.13-.03,.05-.08,.08-.13,.09-.05,0-.11,0-.15-.04-.31-.26-1.12-.81-1.81-.41-.02,0-1.32,.54-1.19,2.29,0,.01,.11,1.18,.88,1.79,.17,.14,.28,.33,.29,.53,0,.04,0,.07,0,.11Z"/></g></svg>